<?xml version="1.0" encoding="UTF-8"?>
<svg id="Layer_1" data-name="Layer 1" xmlns="http://www.w3.org/2000/svg" viewBox="0 0 410.54 57.65">
  <defs>
    <style>
      .cls-1 {
        fill: #000;
        stroke-width: 0px;
      }
    </style>
  </defs>
  <circle class="cls-1" cx="121.76" cy="11.96" r="10.96"/>
  <circle class="cls-1" cx="121.76" cy="46.29" r="10.96"/>
  <g>
    <path class="cls-1" d="M.75,35.83V1.05h8.79v35.14c0,10.01,5.18,15.12,14.4,15.12s14.4-5.11,14.4-15.12V1.05h8.78v34.78c0,15.19-9.22,22.83-23.19,22.83S.75,51.02.75,35.83Z"/>
    <path class="cls-1" d="M56.57,57.21V1.05h9.87l29.16,44.57V1.05h8.28v56.17h-9.87l-29.16-44.57v44.57h-8.28Z"/>
    <path class="cls-1" d="M139.64,57.21V1.05h41.84v14.76h-23.83v6.19h20.38v14.11h-20.38v6.34h25.13v14.76h-43.13Z"/>
    <path class="cls-1" d="M204.51,57.21L184.06,1.05h20.81l11.95,37.23L228.2,1.05h18.51l-19.51,56.17h-22.68Z"/>
    <path class="cls-1" d="M250.74,57.21V1.05h41.83v14.76h-23.83v6.19h20.38v14.11h-20.38v6.34h25.13v14.76h-43.13Z"/>
    <path class="cls-1" d="M300.56,57.21V1.05h20.38l17.86,32.11V1.05h16.71v56.17h-20.38l-17.86-32.11v32.11h-16.71Z"/>
    <path class="cls-1" d="M376.02,57.21V15.81h-15.19V1.05h48.96v14.76h-15.19v41.4h-18.58Z"/>
  </g>
</svg>